# xmcd CD database file
#
# Track frame offsets:
#	150
#	37713
#	80057
#	111431
#	150364
#	192325
#	233606
#	272475
#
# Disc length: 4401 seconds
#
# Revision: 3
# Processed by: cddbd v1.5.2PL0 Copyright (c) Steve Scherf et al.
# Submitted via: CDex 1.51
#
DISCID=58112f08
DTITLE=Heinz von Hermann Quintet (H.v.Hermann, sax,flute/Andy Haderer, tr/Erwin Schmidt, p/Uli Langthaler, b/Bruno Castellucci, dr) - Live In L. E.
DYEAR=1997
DGENRE=Jazz
TTITLE0=The Healer
TTITLE1=Little Peace
TTITLE2=Samba For Carmen
TTITLE3=Kathie´s Garden
TTITLE4=Blues For Ulla
TTITLE5=Groovin´ On Dr. John
TTITLE6=Triolypso
TTITLE7=Ground Blues
EXTD=YEAR: 1997
EXTT0=
EXTT1=
EXTT2=
EXTT3=
EXTT4=
EXTT5=
EXTT6=
EXTT7=
PLAYORDER=
